<svg width="82" height="60" viewBox="0 0 82 60" fill="none" xmlns="http://www.w3.org/2000/svg">
<g filter="url(#filter0_f)">
<path d="M17.9739 49.5281C22.5353 50.5918 27.0961 49.7104 30.7864 47.4245C33.0849 51.1069 36.7853 53.9148 41.3468 54.9785C47.6855 56.4566 54.023 54.1784 58.0249 49.5953C66.8258 51.106 75.3869 45.5079 77.4414 36.6978C79.5735 27.5542 73.8897 18.4135 64.7462 16.2813C63.9307 16.0911 63.1152 15.9631 62.3047 15.8942C60.5135 10.4421 56.0046 6.02823 50.0071 4.62969C45.2626 3.52332 40.5189 4.52142 36.7546 7.0153C30.2975 6.81523 24.2806 10.3324 21.2591 15.9778C13.7607 16.227 7.06369 21.457 5.2787 29.1117C3.14652 38.2552 8.83035 47.396 17.9739 49.5281Z" fill="#E1E1E1"/>
</g>
<defs>
<filter id="filter0_f" x="0.830727" y="0.181717" width="81.0586" height="59.2447" filterUnits="userSpaceOnUse" color-interpolation-filters="sRGB">
<feFlood flood-opacity="0" result="BackgroundImageFix"/>
<feBlend mode="normal" in="SourceGraphic" in2="BackgroundImageFix" result="shape"/>
<feGaussianBlur stdDeviation="2" result="effect1_foregroundBlur"/>
</filter>
</defs>
</svg>
